<svg xmlns="http://www.w3.org/2000/svg" width="161.635" height="53.562"><path fill="#00baff" stroke="rgba(0,0,0,0)" stroke-miterlimit="10" d="M130.15 45.8l4.26-2.58s2.05 4.5 6.7 4.5a6.02 6.02 0 0 0 6.18-6.37s0-.96 0-2.5a12.37 12.37 0 0 1-6.14 1.6 11.5 11.5 0 0 1-11.84-11.6 11.5 11.5 0 0 1 11.86-11.58 12.42 12.42 0 0 1 6.1 1.58v-1.6H153v24.1a11.45 11.45 0 0 1-11.84 11.58 11.42 11.42 0 0 1-11-7.13zM135 28.77a6.03 6.03 0 0 0 6.1 6.45 5.98 5.98 0 0 0 6.17-6.27v-.15c-.02-3.73-2.5-6.3-6.1-6.3a6 6 0 0 0-6.17 6.27zM105.36 45.8l4.25-2.58s2.06 4.5 6.7 4.5a6.02 6.02 0 0 0 6.18-6.37v-2.5a12.4 12.4 0 0 1-6.14 1.6 11.5 11.5 0 0 1-11.84-11.6 11.48 11.48 0 0 1 11.86-11.58 12.43 12.43 0 0 1 6.1 1.58c0-1 0-1.6 0-1.6h5.72v24.1a11.45 11.45 0 0 1-11.84 11.58 11.4 11.4 0 0 1-10.98-7.13zm4.84-17.03a6.03 6.03 0 0 0 6.1 6.45 5.98 5.98 0 0 0 6.18-6.28v-.14c-.02-3.73-2.5-6.3-6.1-6.3a5.98 5.98 0 0 0-6.18 6.27zM19.28 49.2s-8.22-2.58-8.64-2.6c-.72-.08-1.94-.95-1.96-1.93a8.36 8.36 0 0 0-.2-2.64 68.44 68.44 0 0 1-5.5-6.38 12.3 12.3 0 0 1-2.34-9.13c.85-5.74 7.8-10.37 13.3-9.43 3.12.53 7.55 1.8 21.43 4.23a9.54 9.54 0 0 1 1.74-6.2c-.45-.6-2.43-2.17-6.23-1.45a30.9 30.9 0 0 1-7.74.43c-2.92-.16-12.96-3.75-14.03-4.05-1.5-.42-.5-1.24.57-1.7a23.07 23.07 0 0 1 2.5-.9 76.4 76.4 0 0 0 10.14 3.97 26.8 26.8 0 0 0 8.44.53c3.85-.23 6.75.63 7.5 1.7-.4-.65-2.47-2.46-6.72-2.37a33.52 33.52 0 0 1-8.4-.92c-1.84-.42-6.1-2.74-9.47-4.67-2.3-1.33-4.2-2.46-4.66-2.67-1.34-.63-.53-.97.7-1.26A36.36 36.36 0 0 1 18.4.5C24.45.35 30.4 3.47 33.8 4.9s11.16 6.96 11.16 6.96.13.1.33.24a33.2 33.2 0 0 1 3.4 1.5c2.2 1.34 4.87 5.85 4.87 5.85a16.6 16.6 0 0 1 1.64 2.5 5.4 5.4 0 0 1-.78 2.1c-.3.53-1.52 2.75-2.5 3.37a43.97 43.97 0 0 1-8.02 3.28 8.63 8.63 0 0 0-3.5 2.03C39.27 34 27.58 45.76 27.58 45.76l-1.82-.53a10.25 10.25 0 0 0 2.13-8 12.3 12.3 0 0 0-2.7-5.64 10.78 10.78 0 0 1 .65 9.97 11.92 11.92 0 0 1-2.92 3.7c-.73.6-1.07.6-.6.75.9.27 1.73.5 5.93 1.77 2.85.82 3.54 3.04 3.45 3.93-.04.36-.22 1.2-.22 1.2zm-4.54 2.74a1.18 1.18 0 0 1-.08-2.1 1.28 1.28 0 0 1 .97-.02l3 .95a10.9 10.9 0 0 1-3.46 1.25.93.93 0 0 1-.43-.08zm64.97-23.1a11.48 11.48 0 0 1 11.87-11.58c6.78.03 11.82 4.97 11.82 11.6a11.45 11.45 0 0 1-11.85 11.58 11.5 11.5 0 0 1-11.84-11.6zm5.7-.06a6.03 6.03 0 0 0 6.1 6.45c3.63.02 6.17-2.6 6.2-6.35 0-3.77-2.5-6.38-6.13-6.4a6 6 0 0 0-6.16 6.3zm69.9 11.33V17.26h5.84V40.1zm-94.7 0V9.26h5.84v25.2H79.2v5.66zm94.7-27.98a2.92 2.92 0 0 1 2.9-2.92 2.92 2.92 0 0 1 2.94 2.92 2.92 2.92 0 0 1-2.93 2.92 2.92 2.92 0 0 1-2.9-2.92z"/></svg>